<?xml version="1.0" encoding="UTF-8" standalone="no"?>
<!DOCTYPE svg PUBLIC "-//W3C//DTD SVG 1.1//EN"
 "http://www.w3.org/Graphics/SVG/1.1/DTD/svg11.dtd">
<!-- Generated by graphviz version 2.43.0 (0)
 -->
<!-- Pages: 1 -->
<svg width="209pt" height="260pt"
 viewBox="0.00 0.00 209.48 260.00" xmlns="http://www.w3.org/2000/svg" xmlns:xlink="http://www.w3.org/1999/xlink">
<g id="graph0" class="graph" transform="scale(1 1) rotate(0) translate(4 256)">
<polygon fill="white" stroke="transparent" points="-4,4 -4,-256 205.48,-256 205.48,4 -4,4"/>
<!-- 1 -->
<g id="node1" class="node">
<title>1</title>
<ellipse fill="#ccccff" stroke="black" cx="100.74" cy="-234" rx="100.98" ry="18"/>
<text text-anchor="middle" x="100.74" y="-230.3" font-family="Times,serif" font-size="14.00">MY LOVELY LABEL</text>
</g>
<!-- 2 -->
<g id="node2" class="node">
<title>2</title>
<ellipse fill="lightgrey" stroke="black" cx="73.74" cy="-162" rx="27" ry="18"/>
<text text-anchor="middle" x="73.74" y="-158.3" font-family="Times,serif" font-size="14.00">2</text>
</g>
<!-- 1&#45;&gt;2 -->
<g id="edge1" class="edge">
<title>1&#45;&gt;2</title>
<path fill="none" stroke="black" d="M94.07,-215.7C90.98,-207.7 87.25,-198.02 83.83,-189.15"/>
<polygon fill="black" stroke="black" points="87.02,-187.69 80.15,-179.62 80.49,-190.21 87.02,-187.69"/>
</g>
<!-- 3 -->
<g id="node3" class="node">
<title>3</title>
<ellipse fill="lightgrey" stroke="black" cx="73.74" cy="-90" rx="27" ry="18"/>
<text text-anchor="middle" x="73.74" y="-86.3" font-family="Times,serif" font-size="14.00">3</text>
</g>
<!-- 2&#45;&gt;3 -->
<g id="edge2" class="edge">
<title>2&#45;&gt;3</title>
<path fill="none" stroke="black" d="M73.74,-143.7C73.74,-135.98 73.74,-126.71 73.74,-118.11"/>
<polygon fill="black" stroke="black" points="77.24,-118.1 73.74,-108.1 70.24,-118.1 77.24,-118.1"/>
</g>
<!-- 4 -->
<g id="node4" class="node">
<title>4</title>
<ellipse fill="lightgrey" stroke="black" cx="100.74" cy="-18" rx="27" ry="18"/>
<text text-anchor="middle" x="100.74" y="-14.3" font-family="Times,serif" font-size="14.00">4</text>
</g>
<!-- 3&#45;&gt;4 -->
<g id="edge3" class="edge">
<title>3&#45;&gt;4</title>
<path fill="none" stroke="black" d="M80.14,-72.41C83.26,-64.33 87.08,-54.43 90.58,-45.35"/>
<polygon fill="black" stroke="black" points="93.87,-46.55 94.2,-35.96 87.34,-44.03 93.87,-46.55"/>
</g>
<!-- 4&#45;&gt;1 -->
<g id="edge4" class="edge">
<title>4&#45;&gt;1</title>
<path fill="none" stroke="black" d="M104.39,-36.09C106.42,-46.43 108.72,-59.91 109.74,-72 113.77,-119.83 113.77,-132.17 109.74,-180 109.02,-188.5 107.67,-197.69 106.23,-205.99"/>
<polygon fill="black" stroke="black" points="102.77,-205.44 104.39,-215.91 109.66,-206.72 102.77,-205.44"/>
</g>
</g>
</svg>
