<?xml version="1.0" encoding="UTF-8" standalone="no"?>
<!DOCTYPE svg PUBLIC "-//W3C//DTD SVG 1.1//EN"
 "http://www.w3.org/Graphics/SVG/1.1/DTD/svg11.dtd">
<!-- Generated by graphviz version 2.43.0 (0)
 -->
<!-- Pages: 1 -->
<svg width="367pt" height="720pt"
 viewBox="0.00 0.00 366.87 720.00" xmlns="http://www.w3.org/2000/svg" xmlns:xlink="http://www.w3.org/1999/xlink">
<g id="graph0" class="graph" transform="scale(0.58 0.58) rotate(0) translate(4 415.42)">
<polygon fill="white" stroke="transparent" points="-4,4 -4,-415.42 209.71,-415.42 209.71,4 -4,4"/>
<!-- 1 -->
<g id="node1" class="node">
<title>1</title>
<ellipse fill="#ccccff" stroke="black" cx="100.74" cy="-23.33" rx="100.98" ry="18"/>
<text text-anchor="middle" x="100.74" y="-19.63" font-family="Times,serif" font-size="14.00">MY LOVELY LABEL</text>
</g>
<!-- 2 -->
<g id="node2" class="node">
<title>2</title>
<ellipse fill="lightgrey" stroke="black" cx="178.71" cy="-23.33" rx="27" ry="18"/>
<text text-anchor="middle" x="178.71" y="-19.63" font-family="Times,serif" font-size="14.00">2</text>
</g>
<!-- 1&#45;&gt;2 -->
<g id="edge1" class="edge">
<title>1&#45;&gt;2</title>
<path fill="none" stroke="black" d="M178.65,-23.33C178.66,-23.33 178.67,-23.33 178.68,-23.33"/>
<polygon fill="black" stroke="black" points="168.72,-26.88 178.7,-23.33 168.68,-19.88 168.72,-26.88"/>
</g>
<!-- 3 -->
<g id="node3" class="node">
<title>3</title>
<ellipse fill="lightgrey" stroke="black" cx="178.71" cy="-388.09" rx="27" ry="18"/>
<text text-anchor="middle" x="178.71" y="-384.39" font-family="Times,serif" font-size="14.00">3</text>
</g>
<!-- 2&#45;&gt;3 -->
<g id="edge2" class="edge">
<title>2&#45;&gt;3</title>
<path fill="none" stroke="black" d="M178.71,-41.42C178.71,-100.49 178.71,-288.03 178.71,-359.79"/>
<polygon fill="black" stroke="black" points="175.21,-359.9 178.71,-369.9 182.21,-359.9 175.21,-359.9"/>
</g>
<!-- 4 -->
<g id="node4" class="node">
<title>4</title>
<ellipse fill="lightgrey" stroke="black" cx="100.74" cy="-388.09" rx="27" ry="18"/>
<text text-anchor="middle" x="100.74" y="-384.39" font-family="Times,serif" font-size="14.00">4</text>
</g>
<!-- 3&#45;&gt;4 -->
<g id="edge3" class="edge">
<title>3&#45;&gt;4</title>
<path fill="none" stroke="black" d="M151.44,-388.09C147.14,-388.09 142.64,-388.09 138.16,-388.09"/>
<polygon fill="black" stroke="black" points="137.86,-384.59 127.86,-388.09 137.86,-391.59 137.86,-384.59"/>
</g>
<!-- 4&#45;&gt;1 -->
<g id="edge4" class="edge">
<title>4&#45;&gt;1</title>
<path fill="none" stroke="black" d="M100.74,-370C100.74,-310.94 100.74,-123.39 100.74,-51.63"/>
<polygon fill="black" stroke="black" points="104.24,-51.53 100.74,-41.53 97.24,-51.53 104.24,-51.53"/>
</g>
</g>
</svg>
