<?xml version="1.0" encoding="UTF-8" standalone="no"?>
<!DOCTYPE svg PUBLIC "-//W3C//DTD SVG 1.1//EN"
 "http://www.w3.org/Graphics/SVG/1.1/DTD/svg11.dtd">
<!-- Generated by graphviz version 2.43.0 (0)
 -->
<!-- Pages: 1 -->
<svg width="210pt" height="195pt"
 viewBox="0.00 0.00 210.28 194.93" xmlns="http://www.w3.org/2000/svg" xmlns:xlink="http://www.w3.org/1999/xlink">
<g id="graph0" class="graph" transform="scale(1 1) rotate(0) translate(4 190.93)">
<polygon fill="white" stroke="transparent" points="-4,4 -4,-190.93 206.28,-190.93 206.28,4 -4,4"/>
<!-- 1 -->
<g id="node1" class="node">
<title>1</title>
<ellipse fill="#ccccff" stroke="black" cx="101.78" cy="-114.93" rx="100.5" ry="72"/>
<text text-anchor="middle" x="101.78" y="-111.23" font-family="Times,serif" font-size="14.00">MY LOVELY LABEL</text>
</g>
<!-- 2 -->
<g id="node2" class="node">
<title>2</title>
<ellipse fill="lightgrey" stroke="black" cx="123.5" cy="-40.05" rx="27" ry="18"/>
<text text-anchor="middle" x="123.5" y="-36.35" font-family="Times,serif" font-size="14.00">2</text>
</g>
<!-- 1&#45;&gt;2 -->
<g id="edge1" class="edge">
<title>1&#45;&gt;2</title>
<path fill="none" stroke="black" d="M122.33,-44.08C122.36,-44 122.38,-43.92 122.4,-43.84"/>
<polygon fill="black" stroke="black" points="122.89,-54.2 122.47,-43.62 116.2,-52.16 122.89,-54.2"/>
</g>
<!-- 3 -->
<g id="node3" class="node">
<title>3</title>
<ellipse fill="lightgrey" stroke="black" cx="48.72" cy="-18" rx="27" ry="18"/>
<text text-anchor="middle" x="48.72" y="-14.3" font-family="Times,serif" font-size="14.00">3</text>
</g>
<!-- 2&#45;&gt;3 -->
<g id="edge2" class="edge">
<title>2&#45;&gt;3</title>
<path fill="none" stroke="black" d="M98.6,-32.71C93.68,-31.26 88.44,-29.71 83.27,-28.19"/>
<polygon fill="black" stroke="black" points="84.1,-24.78 73.52,-25.31 82.12,-31.5 84.1,-24.78"/>
</g>
<!-- 4 -->
<g id="node4" class="node">
<title>4</title>
<ellipse fill="lightgrey" stroke="black" cx="27" cy="-92.88" rx="27" ry="18"/>
<text text-anchor="middle" x="27" y="-89.18" font-family="Times,serif" font-size="14.00">4</text>
</g>
<!-- 3&#45;&gt;4 -->
<g id="edge3" class="edge">
<title>3&#45;&gt;4</title>
<path fill="none" stroke="black" d="M43.58,-35.74C41.02,-44.54 37.88,-55.36 35.03,-65.21"/>
<polygon fill="black" stroke="black" points="31.61,-64.42 32.19,-75 38.33,-66.37 31.61,-64.42"/>
</g>
<!-- 4&#45;&gt;1 -->
<g id="edge4" class="edge">
<title>4&#45;&gt;1</title>
<path fill="none" stroke="black" d="M51.9,-100.22C51.94,-100.23 51.99,-100.25 52.03,-100.26"/>
<polygon fill="black" stroke="black" points="41.57,-100.65 52.16,-100.3 43.66,-93.97 41.57,-100.65"/>
</g>
</g>
</svg>
