<?xml version='1.0' encoding='ASCII' standalone='yes'?>
<svg xmlns="http://www.w3.org/2000/svg" xmlns:xlink="http://www.w3.org/1999/xlink" version="1.1" width="3279pt" viewBox="0 0 3279pt 788pt" height="788pt">
  <g>
    <g transform="translate(0, 100) scale(1) "><g id="graph0" class="graph" transform="scale(1 1) rotate(0) translate(4 388)">
<polygon fill="white" stroke="transparent" points="-4,4 -4,-388 2216.5,-388 2216.5,4 -4,4"/>
<!-- 24 -->
<g id="node1" class="node">
<title>24</title>
<polygon fill="#ffbd00" stroke="black" points="377,-156 0,-156 0,-12 377,-12 377,-156"/>
<text text-anchor="middle" x="188.5" y="-108.8" font-family="Times,serif" font-size="29.00">M V Berry (2009)</text>
<text text-anchor="middle" x="188.5" y="-76.8" font-family="Times,serif" font-size="29.00">"Transitionless quantum</text>
<text text-anchor="middle" x="188.5" y="-44.8" font-family="Times,serif" font-size="29.00">driving"</text>
</g>
<!-- 26 -->
<g id="node2" class="node">
<title>26</title>
<polygon fill="#fc7f00" stroke="black" points="1539,-384 1142,-384 1142,-216 1539,-216 1539,-384"/>
<text text-anchor="middle" x="1340.5" y="-356.8" font-family="Times,serif" font-size="29.00">Shuo-Yen Tseng (2013)</text>
<text text-anchor="middle" x="1340.5" y="-324.8" font-family="Times,serif" font-size="29.00">"Counterdiabatic</text>
<text text-anchor="middle" x="1340.5" y="-292.8" font-family="Times,serif" font-size="29.00">mode-evolution</text>
<text text-anchor="middle" x="1340.5" y="-260.8" font-family="Times,serif" font-size="29.00">based coupled-waveguide</text>
<text text-anchor="middle" x="1340.5" y="-228.8" font-family="Times,serif" font-size="29.00">devices"</text>
</g>
<!-- 26&#45;&gt;24 -->
<g id="edge1" class="edge">
<title>26-&gt;24</title>
<path fill="none" stroke="black" d="M1297,-215.79C1297,-154.79 1297,-83 1297,-83 1297,-83 387.17,-83 387.17,-83"/>
<polygon fill="black" stroke="black" points="387.17,-79.5 377.17,-83 387.17,-86.5 387.17,-79.5"/>
</g>
<!-- 27 -->
<g id="node3" class="node">
<title>27</title>
<polygon fill="#ffa000" stroke="black" points="1805,-168 1452,-168 1452,0 1805,0 1805,-168"/>
<text text-anchor="middle" x="1628.5" y="-140.8" font-family="Times,serif" font-size="29.00">Shuo-Yen Tseng (2014)</text>
<text text-anchor="middle" x="1628.5" y="-108.8" font-family="Times,serif" font-size="29.00">"Short and robust</text>
<text text-anchor="middle" x="1628.5" y="-76.8" font-family="Times,serif" font-size="29.00">directional couplers</text>
<text text-anchor="middle" x="1628.5" y="-44.8" font-family="Times,serif" font-size="29.00">designed by shortcuts</text>
<text text-anchor="middle" x="1628.5" y="-12.8" font-family="Times,serif" font-size="29.00">to adiabaticity"</text>
</g>
<!-- 27&#45;&gt;26 -->
<g id="edge2" class="edge">
<title>27-&gt;26</title>
<path fill="none" stroke="black" d="M1495.5,-168.13C1495.5,-168.13 1495.5,-205.74 1495.5,-205.74"/>
<polygon fill="black" stroke="black" points="1492,-205.74 1495.5,-215.74 1499,-205.74 1492,-205.74"/>
</g>
<!-- 28 -->
<g id="node4" class="node">
<title>28</title>
<polygon fill="#e4ff7a" stroke="black" points="2212.5,-384 1620.5,-384 1620.5,-216 2212.5,-216 2212.5,-384"/>
<text text-anchor="middle" x="1916.5" y="-356.8" font-family="Times,serif" font-size="29.00">Tzu-Hsuan Pan, Shuo-Yen Tseng (2015)</text>
<text text-anchor="middle" x="1916.5" y="-324.8" font-family="Times,serif" font-size="29.00">"Short and robust</text>
<text text-anchor="middle" x="1916.5" y="-292.8" font-family="Times,serif" font-size="29.00">silicon mode (de)multiplexers</text>
<text text-anchor="middle" x="1916.5" y="-260.8" font-family="Times,serif" font-size="29.00">using shortcuts</text>
<text text-anchor="middle" x="1916.5" y="-228.8" font-family="Times,serif" font-size="29.00">to adiabaticity"</text>
</g>
<!-- 28&#45;&gt;26 -->
<g id="edge3" class="edge">
<title>28-&gt;26</title>
<path fill="none" stroke="black" d="M1620.5,-299C1620.5,-299 1549,-299 1549,-299"/>
<polygon fill="black" stroke="black" points="1549,-295.5 1539,-299 1549,-302.5 1549,-295.5"/>
</g>
<!-- 28&#45;&gt;27 -->
<g id="edge4" class="edge">
<title>28-&gt;27</title>
<path fill="none" stroke="black" d="M1712.8,-215.87C1712.8,-215.87 1712.8,-178.26 1712.8,-178.26"/>
<polygon fill="black" stroke="black" points="1716.3,-178.26 1712.8,-168.26 1709.3,-178.26 1716.3,-178.26"/>
</g>
</g>
</g>
    <g transform="translate(0, 788) scale(1) "><defs>
</defs>
<rect x="0" y="-80" width="3279" height="80" fill="white"/>
<rect x="200" y="-45.0" width="2879" height="5" fill="black"/>
<rect x="200.0" y="-40.0" width="5" height="15" fill="black"/>
<text x="165.0" y="-1.0" font-size="29">2009</text>
<rect x="679.0" y="-40.0" width="5" height="15" fill="black"/>
<text x="644.0" y="-1.0" font-size="29">2010</text>
<rect x="1158.0" y="-40.0" width="5" height="15" fill="black"/>
<text x="1123.0" y="-1.0" font-size="29">2011</text>
<rect x="1637.0" y="-40.0" width="5" height="15" fill="black"/>
<text x="1602.0" y="-1.0" font-size="29">2012</text>
<rect x="2116.0" y="-40.0" width="5" height="15" fill="black"/>
<text x="2081.0" y="-1.0" font-size="29">2013</text>
<rect x="2595.0" y="-40.0" width="5" height="15" fill="black"/>
<text x="2560.0" y="-1.0" font-size="29">2014</text>
<rect x="3074.0" y="-40.0" width="5" height="15" fill="black"/>
<text x="3039.0" y="-1.0" font-size="29">2015</text>
</g>
    <g transform="translate(2829, 100) scale(1) "><defs>
<linearGradient x1="70" y1="-50" x2="370" y2="-80" gradientUnits="userSpaceOnUse" id="d0">
<stop offset="0" stop-color="#e4ff7a" stop-opacity="1"/>
<stop offset="1" stop-color="#fc7f00" stop-opacity="1"/>
</linearGradient>
</defs>
<text x="0" y="-55" font-size="29">Key</text>
<text x="50" y="-20" font-size="29">8</text>
<text x="178" y="-20" font-size="29">Pages</text>
<text x="350" y="-20" font-size="29">12</text>
<rect x="70" y="-80" width="300" height="30" stroke="black" stroke-width="1" fill="url(#d0)"/>
</g>
  </g>
</svg>
