<?xml version='1.0' encoding='ASCII' standalone='yes'?>
<svg xmlns="http://www.w3.org/2000/svg" xmlns:xlink="http://www.w3.org/1999/xlink" version="1.1" width="3279pt" viewBox="0 0 3279pt 788pt" height="788pt">
  <g>
    <g><g id="graph0" class="graph" transform="scale(1 1) rotate(0) translate(4 604)">
<polygon fill="white" stroke="transparent" points="-4,4 -4,-604 3274.5,-604 3274.5,4 -4,4"/>
<!-- 1 -->
<g id="node1" class="node">
<title>1</title>
<g id="a_node1"><a xlink:href="http://www.google.com" xlink:title="Berry (2009)&#10;&quot;Transitionless quantum&#10;driving&quot;">
<polygon fill="#e4ff7a" stroke="black" points="377,-156 0,-156 0,-12 377,-12 377,-156"/>
<text text-anchor="middle" x="188.5" y="-108.8" font-family="Times,serif" font-size="29.00">Berry (2009)</text>
<text text-anchor="middle" x="188.5" y="-76.8" font-family="Times,serif" font-size="29.00">"Transitionless quantum</text>
<text text-anchor="middle" x="188.5" y="-44.8" font-family="Times,serif" font-size="29.00">driving"</text>
</a>
</g>
</g>
<!-- 2 -->
<g id="node2" class="node">
<title>2</title>
<g id="a_node2"><a xlink:href="/home/aztar/Downloads/Paper.pdf" xlink:title="Tseng (2013)&#10;&quot;Counterdiabatic&#10;mode-evolution&#10;based coupled-waveguide&#10;devices&quot;">
<polygon fill="#ffd20d" stroke="black" points="1539,-168 1142,-168 1142,0 1539,0 1539,-168"/>
<text text-anchor="middle" x="1340.5" y="-140.8" font-family="Times,serif" font-size="29.00">Tseng (2013)</text>
<text text-anchor="middle" x="1340.5" y="-108.8" font-family="Times,serif" font-size="29.00">"Counterdiabatic</text>
<text text-anchor="middle" x="1340.5" y="-76.8" font-family="Times,serif" font-size="29.00">mode-evolution</text>
<text text-anchor="middle" x="1340.5" y="-44.8" font-family="Times,serif" font-size="29.00">based coupled-waveguide</text>
<text text-anchor="middle" x="1340.5" y="-12.8" font-family="Times,serif" font-size="29.00">devices"</text>
</a>
</g>
</g>
<!-- 1&#45;&gt;2 -->
<g id="edge1" class="edge">
<title>1-&gt;2</title>
<path fill="none" stroke="black" d="M377.12,-59C377.12,-59 1131.7,-59 1131.7,-59"/>
<polygon fill="black" stroke="black" points="1131.7,-62.5 1141.7,-59 1131.7,-55.5 1131.7,-62.5"/>
</g>
<!-- 3 -->
<g id="node3" class="node">
<title>3</title>
<polygon fill="#ffae00" stroke="black" points="2120,-372 1713,-372 1713,-228 2120,-228 2120,-372"/>
<text text-anchor="middle" x="1916.5" y="-308.8" font-family="Times,serif" font-size="29.00">Muga (2015)</text>
<text text-anchor="middle" x="1916.5" y="-276.8" font-family="Times,serif" font-size="29.00">"Shortcuts to adiabaticity"</text>
</g>
<!-- 1&#45;&gt;3 -->
<g id="edge2" class="edge">
<title>1-&gt;3</title>
<path fill="none" stroke="black" d="M75.4,-156.2C75.4,-178.82 75.4,-198 75.4,-198 75.4,-198 1984.3,-198 1984.3,-198 1984.3,-198 1984.3,-217.78 1984.3,-217.78"/>
<polygon fill="black" stroke="black" points="1980.8,-217.78 1984.3,-227.78 1987.8,-217.78 1980.8,-217.78"/>
</g>
<!-- 4 -->
<g id="node4" class="node">
<title>4</title>
<polygon fill="#ffa000" stroke="black" points="1256,-372 849,-372 849,-228 1256,-228 1256,-372"/>
<text text-anchor="middle" x="1052.5" y="-340.8" font-family="Times,serif" font-size="29.00">Tseng (2012)</text>
<text text-anchor="middle" x="1052.5" y="-308.8" font-family="Times,serif" font-size="29.00">"Engineering of fast</text>
<text text-anchor="middle" x="1052.5" y="-276.8" font-family="Times,serif" font-size="29.00">mode conversion</text>
<text text-anchor="middle" x="1052.5" y="-244.8" font-family="Times,serif" font-size="29.00">in multimode waveguides"</text>
</g>
<!-- 1&#45;&gt;4 -->
<g id="edge3" class="edge">
<title>1-&gt;4</title>
<path fill="none" stroke="black" d="M377.2,-108C615.69,-108 995.5,-108 995.5,-108 995.5,-108 995.5,-217.96 995.5,-217.96"/>
<polygon fill="black" stroke="black" points="992,-217.96 995.5,-227.96 999,-217.96 992,-217.96"/>
</g>
<!-- 6 -->
<g id="node5" class="node">
<title>6</title>
<polygon fill="#e4ff7a" stroke="black" points="3270.5,-372 2866.5,-372 2866.5,-228 3270.5,-228 3270.5,-372"/>
<text text-anchor="middle" x="3068.5" y="-340.8" font-family="Times,serif" font-size="29.00">Guery-Odelin (2019)</text>
<text text-anchor="middle" x="3068.5" y="-308.8" font-family="Times,serif" font-size="29.00">"Shortcuts to adiabaticity:</text>
<text text-anchor="middle" x="3068.5" y="-276.8" font-family="Times,serif" font-size="29.00">Concepts, methods,</text>
<text text-anchor="middle" x="3068.5" y="-244.8" font-family="Times,serif" font-size="29.00">and applications"</text>
</g>
<!-- 1&#45;&gt;6 -->
<g id="edge4" class="edge">
<title>1-&gt;6</title>
<path fill="none" stroke="black" d="M150.8,-156.21C150.8,-171.43 150.8,-183 150.8,-183 150.8,-183 3001.2,-183 3001.2,-183 3001.2,-183 3001.2,-217.9 3001.2,-217.9"/>
<polygon fill="black" stroke="black" points="2997.7,-217.9 3001.2,-227.9 3004.7,-217.9 2997.7,-217.9"/>
</g>
<!-- 3&#45;&gt;6 -->
<g id="edge5" class="edge">
<title>3-&gt;6</title>
<path fill="none" stroke="black" d="M2120.1,-300C2120.1,-300 2856.4,-300 2856.4,-300"/>
<polygon fill="black" stroke="black" points="2856.4,-303.5 2866.4,-300 2856.4,-296.5 2856.4,-303.5"/>
</g>
<!-- 4&#45;&gt;3 -->
<g id="edge6" class="edge">
<title>4-&gt;3</title>
<path fill="none" stroke="black" d="M1256.2,-300C1256.2,-300 1702.7,-300 1702.7,-300"/>
<polygon fill="black" stroke="black" points="1702.7,-303.5 1712.7,-300 1702.7,-296.5 1702.7,-303.5"/>
</g>
<!-- 7 -->
<g id="node6" class="node">
<title>7</title>
<g id="a_node6"><a xlink:href="http://www.google.com" xlink:title="Berry (2009)&#10;&quot;Transitionless quantum&#10;driving again&quot;">
<polygon fill="#f2f34a" stroke="black" points="377,-372 0,-372 0,-228 377,-228 377,-372"/>
<text text-anchor="middle" x="188.5" y="-324.8" font-family="Times,serif" font-size="29.00">Berry (2009)</text>
<text text-anchor="middle" x="188.5" y="-292.8" font-family="Times,serif" font-size="29.00">"Transitionless quantum</text>
<text text-anchor="middle" x="188.5" y="-260.8" font-family="Times,serif" font-size="29.00">driving again"</text>
</a>
</g>
</g>
<!-- 7&#45;&gt;2 -->
<g id="edge7" class="edge">
<title>7-&gt;2</title>
<path fill="none" stroke="black" d="M301.6,-227.95C301.6,-193.65 301.6,-160 301.6,-160 301.6,-160 1131.7,-160 1131.7,-160"/>
<polygon fill="black" stroke="black" points="1131.7,-163.5 1141.7,-160 1131.7,-156.5 1131.7,-163.5"/>
</g>
<!-- 7&#45;&gt;3 -->
<g id="edge8" class="edge">
<title>7-&gt;3</title>
<path fill="none" stroke="black" d="M226.2,-227.76C226.2,-218.96 226.2,-213 226.2,-213 226.2,-213 1848.7,-213 1848.7,-213 1848.7,-213 1848.7,-217.76 1848.7,-217.76"/>
<polygon fill="black" stroke="black" points="1845.2,-217.76 1848.7,-227.76 1852.2,-217.76 1845.2,-217.76"/>
</g>
<!-- 7&#45;&gt;4 -->
<g id="edge9" class="edge">
<title>7-&gt;4</title>
<path fill="none" stroke="black" d="M377.04,-300C377.04,-300 838.91,-300 838.91,-300"/>
<polygon fill="black" stroke="black" points="838.91,-303.5 848.91,-300 838.91,-296.5 838.91,-303.5"/>
</g>
<!-- 7&#45;&gt;6 -->
<g id="edge10" class="edge">
<title>7-&gt;6</title>
<path fill="none" stroke="black" d="M188.5,-372.22C188.5,-388.97 188.5,-402 188.5,-402 188.5,-402 3001.2,-402 3001.2,-402 3001.2,-402 3001.2,-382.22 3001.2,-382.22"/>
<polygon fill="black" stroke="black" points="3004.7,-382.22 3001.2,-372.22 2997.7,-382.22 3004.7,-382.22"/>
</g>
<!-- 8 -->
<g id="node7" class="node">
<title>8</title>
<g id="a_node7"><a xlink:href="http://www.google.com" xlink:title="Berry (2009)&#10;&quot;Transitionless quantum&#10;driving again again&quot;">
<polygon fill="#ffe81a" stroke="black" points="377,-588 0,-588 0,-444 377,-444 377,-588"/>
<text text-anchor="middle" x="188.5" y="-540.8" font-family="Times,serif" font-size="29.00">Berry (2009)</text>
<text text-anchor="middle" x="188.5" y="-508.8" font-family="Times,serif" font-size="29.00">"Transitionless quantum</text>
<text text-anchor="middle" x="188.5" y="-476.8" font-family="Times,serif" font-size="29.00">driving again again"</text>
</a>
</g>
</g>
<!-- 8&#45;&gt;2 -->
<g id="edge11" class="edge">
<title>8-&gt;2</title>
<path fill="none" stroke="black" d="M377.16,-540C490.54,-540 613,-540 613,-540 613,-540 613,-163 613,-163 613,-163 1131.7,-163 1131.7,-163"/>
<polygon fill="black" stroke="black" points="1131.7,-166.5 1141.7,-163 1131.7,-159.5 1131.7,-166.5"/>
</g>
<!-- 8&#45;&gt;3 -->
<g id="edge12" class="edge">
<title>8-&gt;3</title>
<path fill="none" stroke="black" d="M94.25,-443.96C94.25,-414.41 94.25,-387 94.25,-387 94.25,-387 1848.7,-387 1848.7,-387 1848.7,-387 1848.7,-382.24 1848.7,-382.24"/>
<polygon fill="black" stroke="black" points="1852.2,-382.24 1848.7,-372.24 1845.2,-382.24 1852.2,-382.24"/>
</g>
<!-- 8&#45;&gt;4 -->
<g id="edge13" class="edge">
<title>8-&gt;4</title>
<path fill="none" stroke="black" d="M377.44,-492C573.73,-492 852.5,-492 852.5,-492 852.5,-492 852.5,-382.04 852.5,-382.04"/>
<polygon fill="black" stroke="black" points="856,-382.04 852.5,-372.04 849,-382.04 856,-382.04"/>
</g>
<!-- 8&#45;&gt;6 -->
<g id="edge14" class="edge">
<title>8-&gt;6</title>
<path fill="none" stroke="black" d="M282.75,-443.79C282.75,-428.57 282.75,-417 282.75,-417 282.75,-417 3135.8,-417 3135.8,-417 3135.8,-417 3135.8,-382.1 3135.8,-382.1"/>
<polygon fill="black" stroke="black" points="3139.3,-382.1 3135.8,-372.1 3132.3,-382.1 3139.3,-382.1"/>
</g>
<!-- 10 -->
<g id="node8" class="node">
<title>10</title>
<polygon fill="#fd8f00" stroke="black" points="1249,-600 856,-600 856,-432 1249,-432 1249,-600"/>
<text text-anchor="middle" x="1052.5" y="-572.8" font-family="Times,serif" font-size="29.00">Tseng (2012)</text>
<text text-anchor="middle" x="1052.5" y="-540.8" font-family="Times,serif" font-size="29.00">"Engineering of fast</text>
<text text-anchor="middle" x="1052.5" y="-508.8" font-family="Times,serif" font-size="29.00">mode conversion</text>
<text text-anchor="middle" x="1052.5" y="-476.8" font-family="Times,serif" font-size="29.00">in multimode waveguides</text>
<text text-anchor="middle" x="1052.5" y="-444.8" font-family="Times,serif" font-size="29.00">again"</text>
</g>
<!-- 10&#45;&gt;3 -->
<g id="edge15" class="edge">
<title>10-&gt;3</title>
<path fill="none" stroke="black" d="M1249.3,-516C1522.7,-516 1984.3,-516 1984.3,-516 1984.3,-516 1984.3,-382.23 1984.3,-382.23"/>
<polygon fill="black" stroke="black" points="1987.8,-382.23 1984.3,-372.23 1980.8,-382.23 1987.8,-382.23"/>
</g>
<!-- 5 -->
<g id="node9" class="node">
<title>5</title>
<polygon fill="#fc7f00" stroke="black" points="2727.5,-168 2257.5,-168 2257.5,0 2727.5,0 2727.5,-168"/>
<text text-anchor="middle" x="2492.5" y="-140.8" font-family="Times,serif" font-size="29.00">Guo (2017)</text>
<text text-anchor="middle" x="2492.5" y="-108.8" font-family="Times,serif" font-size="29.00">"Silicon mode (de)multiplexers</text>
<text text-anchor="middle" x="2492.5" y="-76.8" font-family="Times,serif" font-size="29.00">with parameters</text>
<text text-anchor="middle" x="2492.5" y="-44.8" font-family="Times,serif" font-size="29.00">optimized using</text>
<text text-anchor="middle" x="2492.5" y="-12.8" font-family="Times,serif" font-size="29.00">shortcuts to adiabaticity"</text>
</g>
<!-- 5&#45;&gt;6 -->
<g id="edge16" class="edge">
<title>5-&gt;6</title>
<path fill="none" stroke="black" d="M2727.9,-83C2911.6,-83 3135.8,-83 3135.8,-83 3135.8,-83 3135.8,-217.74 3135.8,-217.74"/>
<polygon fill="black" stroke="black" points="3132.3,-217.74 3135.8,-227.74 3139.3,-217.74 3132.3,-217.74"/>
</g>
</g>
</g>
    <g transform="translate(0, 688) scale(1) "><defs>
</defs>
<rect x="0" y="-80" width="3279" height="80" fill="white"/>
<rect x="200" y="-45.0" width="2879" height="5" fill="black"/>
<rect x="200.0" y="-40.0" width="5" height="15" fill="black"/>
<text x="165.0" y="-1.0" font-size="29">2009</text>
<rect x="487.4" y="-40.0" width="5" height="15" fill="black"/>
<text x="452.4" y="-1.0" font-size="29">2010</text>
<rect x="774.8" y="-40.0" width="5" height="15" fill="black"/>
<text x="739.8" y="-1.0" font-size="29">2011</text>
<rect x="1062.1999999999998" y="-40.0" width="5" height="15" fill="black"/>
<text x="1027.1999999999998" y="-1.0" font-size="29">2012</text>
<rect x="1349.6" y="-40.0" width="5" height="15" fill="black"/>
<text x="1314.6" y="-1.0" font-size="29">2013</text>
<rect x="1637.0" y="-40.0" width="5" height="15" fill="black"/>
<text x="1602.0" y="-1.0" font-size="29">2014</text>
<rect x="1924.3999999999999" y="-40.0" width="5" height="15" fill="black"/>
<text x="1889.3999999999999" y="-1.0" font-size="29">2015</text>
<rect x="2211.7999999999997" y="-40.0" width="5" height="15" fill="black"/>
<text x="2176.7999999999997" y="-1.0" font-size="29">2016</text>
<rect x="2499.2" y="-40.0" width="5" height="15" fill="black"/>
<text x="2464.2" y="-1.0" font-size="29">2017</text>
<rect x="2786.6" y="-40.0" width="5" height="15" fill="black"/>
<text x="2751.6" y="-1.0" font-size="29">2018</text>
<rect x="3074.0" y="-40.0" width="5" height="15" fill="black"/>
<text x="3039.0" y="-1.0" font-size="29">2019</text>
</g>
    <g transform="translate(0, 788) scale(1) "><defs>
<linearGradient x1="70" y1="-50" x2="370" y2="-80" gradientUnits="userSpaceOnUse" id="d0">
<stop offset="0" stop-color="#e4ff7a" stop-opacity="1"/>
<stop offset="1" stop-color="#fc7f00" stop-opacity="1"/>
</linearGradient>
</defs>
<text x="0" y="-55" font-size="29">Key</text>
<text x="50" y="-20" font-size="29">10</text>
<text x="178" y="-20" font-size="29">Pages</text>
<text x="350" y="-20" font-size="29">90</text>
<rect x="70" y="-80" width="300" height="30" stroke="black" stroke-width="1" fill="url(#d0)"/>
</g>
  </g>
</svg>
