<?xml version="1.0" encoding="UTF-8" standalone="no"?>
<!DOCTYPE svg PUBLIC "-//W3C//DTD SVG 1.1//EN"
 "http://www.w3.org/Graphics/SVG/1.1/DTD/svg11.dtd">
<!-- Generated by graphviz version 2.43.0 (0)
 -->
<!-- Pages: 1 -->
<svg width="830pt" height="292pt"
 viewBox="0.00 0.00 830.00 292.08" xmlns="http://www.w3.org/2000/svg" xmlns:xlink="http://www.w3.org/1999/xlink">
<g id="graph0" class="graph" transform="scale(1 1) rotate(0) translate(4 288.08)">
<polygon fill="white" stroke="transparent" points="-4,4 -4,-288.08 826,-288.08 826,4 -4,4"/>
<!-- 1 -->
<g id="node1" class="node">
<title>1</title>
<ellipse fill="lightgrey" stroke="black" cx="87" cy="-32.44" rx="87" ry="27"/>
<text text-anchor="middle" x="87" y="-36.24" font-family="Times,serif" font-size="14.00">1</text>
<text text-anchor="middle" x="87" y="-21.24" font-family="Times,serif" font-size="14.00">Does this work</text>
</g>
<!-- 2 -->
<g id="node2" class="node">
<title>2</title>
<ellipse fill="lightgrey" stroke="black" cx="303" cy="-32.44" rx="87" ry="27"/>
<text text-anchor="middle" x="303" y="-36.24" font-family="Times,serif" font-size="14.00">2</text>
<text text-anchor="middle" x="303" y="-21.24" font-family="Times,serif" font-size="14.00">Does this work</text>
</g>
<!-- 1&#45;&gt;2 -->
<g id="edge1" class="edge">
<title>1&#45;&gt;2</title>
<path fill="none" stroke="black" d="M174.24,-32.44C184.62,-32.44 195.27,-32.44 205.78,-32.44"/>
<polygon fill="black" stroke="black" points="205.8,-35.94 215.8,-32.44 205.8,-28.94 205.8,-35.94"/>
</g>
<!-- 3 -->
<g id="node3" class="node">
<title>3</title>
<ellipse fill="lightgrey" stroke="black" cx="519" cy="-257.08" rx="87" ry="27"/>
<text text-anchor="middle" x="519" y="-260.88" font-family="Times,serif" font-size="14.00">3</text>
<text text-anchor="middle" x="519" y="-245.88" font-family="Times,serif" font-size="14.00">Does this work</text>
</g>
<!-- 2&#45;&gt;3 -->
<g id="edge2" class="edge">
<title>2&#45;&gt;3</title>
<path fill="none" stroke="black" d="M327.78,-58.21C367.06,-99.06 443.62,-178.68 487,-223.8"/>
<polygon fill="black" stroke="black" points="484.72,-226.49 494.18,-231.27 489.77,-221.63 484.72,-226.49"/>
</g>
<!-- 5 -->
<g id="node4" class="node">
<title>5</title>
<ellipse fill="lightgrey" stroke="black" cx="735" cy="-32.44" rx="87" ry="27"/>
<text text-anchor="middle" x="735" y="-36.24" font-family="Times,serif" font-size="14.00">5</text>
<text text-anchor="middle" x="735" y="-21.24" font-family="Times,serif" font-size="14.00">Does this work</text>
</g>
<!-- 3&#45;&gt;5 -->
<g id="edge3" class="edge">
<title>3&#45;&gt;5</title>
<path fill="none" stroke="black" d="M543.78,-231.31C583.06,-190.46 659.62,-110.84 703,-65.72"/>
<polygon fill="black" stroke="black" points="705.77,-67.89 710.18,-58.26 700.72,-63.04 705.77,-67.89"/>
</g>
<!-- 5&#45;&gt;1 -->
<g id="edge4" class="edge">
<title>5&#45;&gt;1</title>
<path fill="none" stroke="black" d="M654.34,-22.37C567.7,-12.67 425.93,0 303.41,-3.97 275.29,-4.88 268.55,-8.55 240.66,-12.22 220.14,-14.92 198.08,-17.82 177.26,-20.56"/>
<polygon fill="black" stroke="black" points="176.6,-17.12 167.15,-21.89 177.52,-24.06 176.6,-17.12"/>
</g>
</g>
</svg>
