<?xml version="1.0" encoding="UTF-8" standalone="no"?>
<!DOCTYPE svg PUBLIC "-//W3C//DTD SVG 1.1//EN"
 "http://www.w3.org/Graphics/SVG/1.1/DTD/svg11.dtd">
<!-- Generated by graphviz version 2.43.0 (0)
 -->
<!-- Pages: 1 -->
<svg width="278pt" height="273pt"
 viewBox="0.00 0.00 278.00 272.96" xmlns="http://www.w3.org/2000/svg" xmlns:xlink="http://www.w3.org/1999/xlink">
<g id="graph0" class="graph" transform="scale(1 1) rotate(0) translate(4 268.96)">
<polygon fill="white" stroke="transparent" points="-4,4 -4,-268.96 274,-268.96 274,4 -4,4"/>
<!-- 1 -->
<g id="node1" class="node">
<title>1</title>
<ellipse fill="lightgrey" stroke="black" cx="27" cy="-22.32" rx="27" ry="18"/>
<text text-anchor="middle" x="27" y="-18.62" font-family="Times,serif" font-size="14.00">1</text>
</g>
<!-- 2 -->
<g id="node2" class="node">
<title>2</title>
<ellipse fill="lightgrey" stroke="black" cx="99" cy="-22.32" rx="27" ry="18"/>
<text text-anchor="middle" x="99" y="-18.62" font-family="Times,serif" font-size="14.00">2</text>
</g>
<!-- 1&#45;&gt;2 -->
<g id="edge1" class="edge">
<title>1&#45;&gt;2</title>
<path fill="none" stroke="black" d="M54.22,-22.32C56.64,-22.32 59.12,-22.32 61.6,-22.32"/>
<polygon fill="black" stroke="black" points="61.74,-25.82 71.74,-22.32 61.74,-18.82 61.74,-25.82"/>
</g>
<!-- 3 -->
<g id="node3" class="node">
<title>3</title>
<ellipse fill="lightgrey" stroke="black" cx="171" cy="-246.96" rx="27" ry="18"/>
<text text-anchor="middle" x="171" y="-243.26" font-family="Times,serif" font-size="14.00">3</text>
</g>
<!-- 2&#45;&gt;3 -->
<g id="edge2" class="edge">
<title>2&#45;&gt;3</title>
<path fill="none" stroke="black" d="M104.65,-39.94C117.13,-78.89 147.14,-172.51 162.14,-219.32"/>
<polygon fill="black" stroke="black" points="158.89,-220.65 165.28,-229.1 165.56,-218.51 158.89,-220.65"/>
</g>
<!-- 5 -->
<g id="node4" class="node">
<title>5</title>
<ellipse fill="lightgrey" stroke="black" cx="243" cy="-22.32" rx="27" ry="18"/>
<text text-anchor="middle" x="243" y="-18.62" font-family="Times,serif" font-size="14.00">5</text>
</g>
<!-- 3&#45;&gt;5 -->
<g id="edge3" class="edge">
<title>3&#45;&gt;5</title>
<path fill="none" stroke="black" d="M176.65,-229.33C189.13,-190.38 219.14,-96.77 234.14,-49.95"/>
<polygon fill="black" stroke="black" points="237.55,-50.76 237.28,-40.17 230.89,-48.62 237.55,-50.76"/>
</g>
<!-- 5&#45;&gt;1 -->
<g id="edge4" class="edge">
<title>5&#45;&gt;1</title>
<path fill="none" stroke="black" d="M217.64,-15.74C188.98,-9.05 140.89,0 99.13,-2.72 86.18,-3.56 72.34,-6.73 60.28,-10.29"/>
<polygon fill="black" stroke="black" points="59.12,-6.99 50.63,-13.32 61.22,-13.66 59.12,-6.99"/>
</g>
</g>
</svg>
