<?xml version="1.0" encoding="UTF-8" standalone="no"?>
<!DOCTYPE svg PUBLIC "-//W3C//DTD SVG 1.1//EN"
 "http://www.w3.org/Graphics/SVG/1.1/DTD/svg11.dtd">
<!-- Generated by graphviz version 2.43.0 (0)
 -->
<!-- Pages: 1 -->
<svg width="3279pt" height="608pt"
 viewBox="0.00 0.00 3278.50 608.00" xmlns="http://www.w3.org/2000/svg" xmlns:xlink="http://www.w3.org/1999/xlink">
<g id="graph0" class="graph" transform="scale(1 1) rotate(0) translate(4 604)">
<polygon fill="white" stroke="transparent" points="-4,4 -4,-604 3274.5,-604 3274.5,4 -4,4"/>
<!-- 1 -->
<g id="node1" class="node">
<title>1</title>
<g id="a_node1"><a xlink:href="http://www.google.com" xlink:title="Berry (2009)&#10;&quot;Transitionless quantum&#10;driving&quot;">
<polygon fill="red" stroke="red" points="377,-156 0,-156 0,-12 377,-12 377,-156"/>
<text text-anchor="middle" x="188.5" y="-108.8" font-family="Times,serif" font-size="29.00">Berry (2009)</text>
<text text-anchor="middle" x="188.5" y="-76.8" font-family="Times,serif" font-size="29.00">&quot;Transitionless quantum</text>
<text text-anchor="middle" x="188.5" y="-44.8" font-family="Times,serif" font-size="29.00">driving&quot;</text>
</a>
</g>
</g>
<!-- 2 -->
<g id="node2" class="node">
<title>2</title>
<g id="a_node2"><a xlink:href="/home/aztar/Downloads/Paper.pdf" xlink:title="Tseng (2013)&#10;&quot;Counterdiabatic&#10;mode&#45;evolution&#10;based coupled&#45;waveguide&#10;devices&quot;">
<polygon fill="red" stroke="red" points="1539,-168 1142,-168 1142,0 1539,0 1539,-168"/>
<text text-anchor="middle" x="1340.5" y="-140.8" font-family="Times,serif" font-size="29.00">Tseng (2013)</text>
<text text-anchor="middle" x="1340.5" y="-108.8" font-family="Times,serif" font-size="29.00">&quot;Counterdiabatic</text>
<text text-anchor="middle" x="1340.5" y="-76.8" font-family="Times,serif" font-size="29.00">mode&#45;evolution</text>
<text text-anchor="middle" x="1340.5" y="-44.8" font-family="Times,serif" font-size="29.00">based coupled&#45;waveguide</text>
<text text-anchor="middle" x="1340.5" y="-12.8" font-family="Times,serif" font-size="29.00">devices&quot;</text>
</a>
</g>
</g>
<!-- 1&#45;&gt;2 -->
<g id="edge1" class="edge">
<title>1&#45;&gt;2</title>
<path fill="none" stroke="black" d="M377.12,-84C584.41,-84 916.47,-84 1131.5,-84"/>
<polygon fill="black" stroke="black" points="1131.7,-87.5 1141.7,-84 1131.7,-80.5 1131.7,-87.5"/>
</g>
<!-- 3 -->
<g id="node3" class="node">
<title>3</title>
<polygon fill="red" stroke="red" points="2120,-372 1713,-372 1713,-228 2120,-228 2120,-372"/>
<text text-anchor="middle" x="1916.5" y="-308.8" font-family="Times,serif" font-size="29.00">Muga (2015)</text>
<text text-anchor="middle" x="1916.5" y="-276.8" font-family="Times,serif" font-size="29.00">&quot;Shortcuts to adiabaticity&quot;</text>
</g>
<!-- 1&#45;&gt;3 -->
<g id="edge2" class="edge">
<title>1&#45;&gt;3</title>
<path fill="none" stroke="black" d="M377.13,-107.58C701.38,-148.11 1362.3,-230.73 1703,-273.31"/>
<polygon fill="black" stroke="black" points="1702.64,-276.79 1713,-274.56 1703.51,-269.85 1702.64,-276.79"/>
</g>
<!-- 4 -->
<g id="node4" class="node">
<title>4</title>
<polygon fill="red" stroke="red" points="1256,-372 849,-372 849,-228 1256,-228 1256,-372"/>
<text text-anchor="middle" x="1052.5" y="-340.8" font-family="Times,serif" font-size="29.00">Tseng (2012)</text>
<text text-anchor="middle" x="1052.5" y="-308.8" font-family="Times,serif" font-size="29.00">&quot;Engineering of fast</text>
<text text-anchor="middle" x="1052.5" y="-276.8" font-family="Times,serif" font-size="29.00">mode conversion</text>
<text text-anchor="middle" x="1052.5" y="-244.8" font-family="Times,serif" font-size="29.00">in multimode waveguides&quot;</text>
</g>
<!-- 1&#45;&gt;4 -->
<g id="edge3" class="edge">
<title>1&#45;&gt;4</title>
<path fill="none" stroke="black" d="M377.04,-131.14C513.17,-165.17 697.2,-211.17 838.79,-246.57"/>
<polygon fill="black" stroke="black" points="838.36,-250.07 848.91,-249.1 840.06,-243.28 838.36,-250.07"/>
</g>
<!-- 6 -->
<g id="node5" class="node">
<title>6</title>
<polygon fill="red" stroke="red" points="3270.5,-372 2866.5,-372 2866.5,-228 3270.5,-228 3270.5,-372"/>
<text text-anchor="middle" x="3068.5" y="-340.8" font-family="Times,serif" font-size="29.00">Guery&#45;Odelin (2019)</text>
<text text-anchor="middle" x="3068.5" y="-308.8" font-family="Times,serif" font-size="29.00">&quot;Shortcuts to adiabaticity:</text>
<text text-anchor="middle" x="3068.5" y="-276.8" font-family="Times,serif" font-size="29.00">Concepts, methods,</text>
<text text-anchor="middle" x="3068.5" y="-244.8" font-family="Times,serif" font-size="29.00">and applications&quot;</text>
</g>
<!-- 1&#45;&gt;6 -->
<g id="edge4" class="edge">
<title>1&#45;&gt;6</title>
<path fill="none" stroke="black" d="M377.19,-98.15C891.42,-136.72 2315.1,-243.49 2856.1,-284.07"/>
<polygon fill="black" stroke="black" points="2856.17,-287.58 2866.4,-284.84 2856.69,-280.6 2856.17,-287.58"/>
</g>
<!-- 3&#45;&gt;6 -->
<g id="edge5" class="edge">
<title>3&#45;&gt;6</title>
<path fill="none" stroke="black" d="M2120.1,-300C2327,-300 2646.2,-300 2856.2,-300"/>
<polygon fill="black" stroke="black" points="2856.4,-303.5 2866.4,-300 2856.4,-296.5 2856.4,-303.5"/>
</g>
<!-- 4&#45;&gt;3 -->
<g id="edge6" class="edge">
<title>4&#45;&gt;3</title>
<path fill="none" stroke="black" d="M1256.2,-300C1390.5,-300 1566.2,-300 1702.5,-300"/>
<polygon fill="black" stroke="black" points="1702.7,-303.5 1712.7,-300 1702.7,-296.5 1702.7,-303.5"/>
</g>
<!-- 7 -->
<g id="node6" class="node">
<title>7</title>
<g id="a_node6"><a xlink:href="http://www.google.com" xlink:title="Berry (2009)&#10;&quot;Transitionless quantum&#10;driving again&quot;">
<polygon fill="red" stroke="red" points="377,-372 0,-372 0,-228 377,-228 377,-372"/>
<text text-anchor="middle" x="188.5" y="-324.8" font-family="Times,serif" font-size="29.00">Berry (2009)</text>
<text text-anchor="middle" x="188.5" y="-292.8" font-family="Times,serif" font-size="29.00">&quot;Transitionless quantum</text>
<text text-anchor="middle" x="188.5" y="-260.8" font-family="Times,serif" font-size="29.00">driving again&quot;</text>
</a>
</g>
</g>
<!-- 7&#45;&gt;2 -->
<g id="edge7" class="edge">
<title>7&#45;&gt;2</title>
<path fill="none" stroke="black" d="M377.12,-264.63C584.51,-225.75 916.79,-163.44 1131.8,-123.12"/>
<polygon fill="black" stroke="black" points="1132.51,-126.55 1141.7,-121.28 1131.23,-119.67 1132.51,-126.55"/>
</g>
<!-- 7&#45;&gt;3 -->
<g id="edge8" class="edge">
<title>7&#45;&gt;3</title>
<path fill="none" stroke="black" d="M377.13,-300C701.3,-300 1362,-300 1702.7,-300"/>
<polygon fill="black" stroke="black" points="1703,-303.5 1713,-300 1703,-296.5 1703,-303.5"/>
</g>
<!-- 7&#45;&gt;4 -->
<g id="edge9" class="edge">
<title>7&#45;&gt;4</title>
<path fill="none" stroke="black" d="M377.04,-300C513.17,-300 697.2,-300 838.79,-300"/>
<polygon fill="black" stroke="black" points="838.91,-303.5 848.91,-300 838.91,-296.5 838.91,-303.5"/>
</g>
<!-- 7&#45;&gt;6 -->
<g id="edge10" class="edge">
<title>7&#45;&gt;6</title>
<path fill="none" stroke="black" d="M377.19,-300C891.42,-300 2315.1,-300 2856.1,-300"/>
<polygon fill="black" stroke="black" points="2856.4,-303.5 2866.4,-300 2856.4,-296.5 2856.4,-303.5"/>
</g>
<!-- 8 -->
<g id="node7" class="node">
<title>8</title>
<g id="a_node7"><a xlink:href="http://www.google.com" xlink:title="Berry (2009)&#10;&quot;Transitionless quantum&#10;driving again again&quot;">
<polygon fill="red" stroke="red" points="377,-588 0,-588 0,-444 377,-444 377,-588"/>
<text text-anchor="middle" x="188.5" y="-540.8" font-family="Times,serif" font-size="29.00">Berry (2009)</text>
<text text-anchor="middle" x="188.5" y="-508.8" font-family="Times,serif" font-size="29.00">&quot;Transitionless quantum</text>
<text text-anchor="middle" x="188.5" y="-476.8" font-family="Times,serif" font-size="29.00">driving again again&quot;</text>
</a>
</g>
</g>
<!-- 8&#45;&gt;2 -->
<g id="edge11" class="edge">
<title>8&#45;&gt;2</title>
<path fill="none" stroke="black" d="M377.12,-445.27C584.62,-367.46 917.12,-242.77 1132.2,-162.13"/>
<polygon fill="black" stroke="black" points="1133.57,-165.35 1141.7,-158.56 1131.11,-158.8 1133.57,-165.35"/>
</g>
<!-- 8&#45;&gt;3 -->
<g id="edge12" class="edge">
<title>8&#45;&gt;3</title>
<path fill="none" stroke="black" d="M377.13,-492.42C701.38,-451.89 1362.3,-369.27 1703,-326.69"/>
<polygon fill="black" stroke="black" points="1703.51,-330.15 1713,-325.44 1702.64,-323.21 1703.51,-330.15"/>
</g>
<!-- 8&#45;&gt;4 -->
<g id="edge13" class="edge">
<title>8&#45;&gt;4</title>
<path fill="none" stroke="black" d="M377.04,-468.86C513.17,-434.83 697.2,-388.83 838.79,-353.43"/>
<polygon fill="black" stroke="black" points="840.06,-356.72 848.91,-350.9 838.36,-349.93 840.06,-356.72"/>
</g>
<!-- 8&#45;&gt;6 -->
<g id="edge14" class="edge">
<title>8&#45;&gt;6</title>
<path fill="none" stroke="black" d="M377.19,-501.85C891.42,-463.28 2315.1,-356.51 2856.1,-315.93"/>
<polygon fill="black" stroke="black" points="2856.69,-319.4 2866.4,-315.16 2856.17,-312.42 2856.69,-319.4"/>
</g>
<!-- 10 -->
<g id="node8" class="node">
<title>10</title>
<polygon fill="red" stroke="red" points="1249,-600 856,-600 856,-432 1249,-432 1249,-600"/>
<text text-anchor="middle" x="1052.5" y="-572.8" font-family="Times,serif" font-size="29.00">Tseng (2012)</text>
<text text-anchor="middle" x="1052.5" y="-540.8" font-family="Times,serif" font-size="29.00">&quot;Engineering of fast</text>
<text text-anchor="middle" x="1052.5" y="-508.8" font-family="Times,serif" font-size="29.00">mode conversion</text>
<text text-anchor="middle" x="1052.5" y="-476.8" font-family="Times,serif" font-size="29.00">in multimode waveguides</text>
<text text-anchor="middle" x="1052.5" y="-444.8" font-family="Times,serif" font-size="29.00">again&quot;</text>
</g>
<!-- 10&#45;&gt;3 -->
<g id="edge15" class="edge">
<title>10&#45;&gt;3</title>
<path fill="none" stroke="black" d="M1249.1,-466.85C1384.4,-433.02 1564.1,-388.11 1702.9,-353.4"/>
<polygon fill="black" stroke="black" points="1703.95,-356.75 1712.8,-350.92 1702.25,-349.95 1703.95,-356.75"/>
</g>
<!-- 9 -->
<g id="node9" class="node">
<title>9</title>
<g id="a_node9"><a xlink:href="/home/aztar/Downloads/Paper.pdf" xlink:title="Tseng (2013)&#10;&quot;Counterdiabatic&#10;mode&#45;evolution&#10;based coupled&#45;waveguide&#10;devices again&quot;">
<polygon fill="red" stroke="red" points="1539,-384 1142,-384 1142,-216 1539,-216 1539,-384"/>
<text text-anchor="middle" x="1340.5" y="-356.8" font-family="Times,serif" font-size="29.00">Tseng (2013)</text>
<text text-anchor="middle" x="1340.5" y="-324.8" font-family="Times,serif" font-size="29.00">&quot;Counterdiabatic</text>
<text text-anchor="middle" x="1340.5" y="-292.8" font-family="Times,serif" font-size="29.00">mode&#45;evolution</text>
<text text-anchor="middle" x="1340.5" y="-260.8" font-family="Times,serif" font-size="29.00">based coupled&#45;waveguide</text>
<text text-anchor="middle" x="1340.5" y="-228.8" font-family="Times,serif" font-size="29.00">devices again&quot;</text>
</a>
</g>
</g>
<!-- 5 -->
<g id="node10" class="node">
<title>5</title>
<polygon fill="red" stroke="red" points="2727.5,-168 2257.5,-168 2257.5,0 2727.5,0 2727.5,-168"/>
<text text-anchor="middle" x="2492.5" y="-140.8" font-family="Times,serif" font-size="29.00">Guo (2017)</text>
<text text-anchor="middle" x="2492.5" y="-108.8" font-family="Times,serif" font-size="29.00">&quot;Silicon mode (de)multiplexers</text>
<text text-anchor="middle" x="2492.5" y="-76.8" font-family="Times,serif" font-size="29.00">with parameters</text>
<text text-anchor="middle" x="2492.5" y="-44.8" font-family="Times,serif" font-size="29.00">optimized using</text>
<text text-anchor="middle" x="2492.5" y="-12.8" font-family="Times,serif" font-size="29.00">shortcuts to adiabaticity&quot;</text>
</g>
<!-- 5&#45;&gt;6 -->
<g id="edge16" class="edge">
<title>5&#45;&gt;6</title>
<path fill="none" stroke="black" d="M2716.8,-168.13C2766.2,-186.62 2818.1,-206.09 2866.4,-224.23"/>
<polygon fill="black" stroke="black" points="2865.51,-227.63 2876.1,-227.84 2867.95,-221.07 2865.51,-227.63"/>
</g>
</g>
</svg>
