<?xml version="1.0" encoding="UTF-8" standalone="no"?>
<!DOCTYPE svg PUBLIC "-//W3C//DTD SVG 1.1//EN"
 "http://www.w3.org/Graphics/SVG/1.1/DTD/svg11.dtd">
<!-- Generated by graphviz version 2.43.0 (0)
 -->
<!-- Pages: 1 -->
<svg width="3279pt" height="380pt"
 viewBox="0.00 0.00 3278.50 380.00" xmlns="http://www.w3.org/2000/svg" xmlns:xlink="http://www.w3.org/1999/xlink">
<g id="graph0" class="graph" transform="scale(1 1) rotate(0) translate(4 376)">
<polygon fill="white" stroke="transparent" points="-4,4 -4,-376 3274.5,-376 3274.5,4 -4,4"/>
<!-- 1 -->
<g id="node1" class="node">
<title>1</title>
<polygon fill="lightgrey" stroke="black" points="377,-156 0,-156 0,-12 377,-12 377,-156"/>
<text text-anchor="middle" x="188.5" y="-108.8" font-family="Times,serif" font-size="29.00">Berry (2009)</text>
<text text-anchor="middle" x="188.5" y="-76.8" font-family="Times,serif" font-size="29.00">&quot;Transitionless quantum</text>
<text text-anchor="middle" x="188.5" y="-44.8" font-family="Times,serif" font-size="29.00">driving&quot;</text>
</g>
<!-- 2 -->
<g id="node2" class="node">
<title>2</title>
<polygon fill="lightgrey" stroke="black" points="1539,-168 1142,-168 1142,0 1539,0 1539,-168"/>
<text text-anchor="middle" x="1340.5" y="-140.8" font-family="Times,serif" font-size="29.00">Tseng (2013)</text>
<text text-anchor="middle" x="1340.5" y="-108.8" font-family="Times,serif" font-size="29.00">&quot;Counterdiabatic</text>
<text text-anchor="middle" x="1340.5" y="-76.8" font-family="Times,serif" font-size="29.00">mode&#45;evolution</text>
<text text-anchor="middle" x="1340.5" y="-44.8" font-family="Times,serif" font-size="29.00">based coupled&#45;waveguide</text>
<text text-anchor="middle" x="1340.5" y="-12.8" font-family="Times,serif" font-size="29.00">devices&quot;</text>
</g>
<!-- 1&#45;&gt;2 -->
<g id="edge1" class="edge">
<title>1&#45;&gt;2</title>
<path fill="none" stroke="black" d="M377.12,-59C377.12,-59 1131.7,-59 1131.7,-59"/>
<polygon fill="black" stroke="black" points="1131.7,-62.5 1141.7,-59 1131.7,-55.5 1131.7,-62.5"/>
</g>
<!-- 3 -->
<g id="node3" class="node">
<title>3</title>
<polygon fill="lightgrey" stroke="black" points="2120,-372 1713,-372 1713,-228 2120,-228 2120,-372"/>
<text text-anchor="middle" x="1916.5" y="-308.8" font-family="Times,serif" font-size="29.00">Muga (2015)</text>
<text text-anchor="middle" x="1916.5" y="-276.8" font-family="Times,serif" font-size="29.00">&quot;Shortcuts to adiabaticity&quot;</text>
</g>
<!-- 1&#45;&gt;3 -->
<g id="edge2" class="edge">
<title>1&#45;&gt;3</title>
<path fill="none" stroke="black" d="M125.67,-156.26C125.67,-183.03 125.67,-207 125.67,-207 125.67,-207 1916.5,-207 1916.5,-207 1916.5,-207 1916.5,-217.64 1916.5,-217.64"/>
<polygon fill="black" stroke="black" points="1913,-217.64 1916.5,-227.64 1920,-217.64 1913,-217.64"/>
</g>
<!-- 4 -->
<g id="node4" class="node">
<title>4</title>
<polygon fill="lightgrey" stroke="black" points="1256,-372 849,-372 849,-228 1256,-228 1256,-372"/>
<text text-anchor="middle" x="1052.5" y="-340.8" font-family="Times,serif" font-size="29.00">Tseng (2012)</text>
<text text-anchor="middle" x="1052.5" y="-308.8" font-family="Times,serif" font-size="29.00">&quot;Engineering of fast</text>
<text text-anchor="middle" x="1052.5" y="-276.8" font-family="Times,serif" font-size="29.00">mode conversion</text>
<text text-anchor="middle" x="1052.5" y="-244.8" font-family="Times,serif" font-size="29.00">in multimode waveguides&quot;</text>
</g>
<!-- 1&#45;&gt;4 -->
<g id="edge3" class="edge">
<title>1&#45;&gt;4</title>
<path fill="none" stroke="black" d="M377.2,-108C615.69,-108 995.5,-108 995.5,-108 995.5,-108 995.5,-217.96 995.5,-217.96"/>
<polygon fill="black" stroke="black" points="992,-217.96 995.5,-227.96 999,-217.96 992,-217.96"/>
</g>
<!-- 6 -->
<g id="node5" class="node">
<title>6</title>
<polygon fill="lightgrey" stroke="black" points="3270.5,-372 2866.5,-372 2866.5,-228 3270.5,-228 3270.5,-372"/>
<text text-anchor="middle" x="3068.5" y="-340.8" font-family="Times,serif" font-size="29.00">Guery&#45;Odelin (2019)</text>
<text text-anchor="middle" x="3068.5" y="-308.8" font-family="Times,serif" font-size="29.00">&quot;Shortcuts to adiabaticity:</text>
<text text-anchor="middle" x="3068.5" y="-276.8" font-family="Times,serif" font-size="29.00">Concepts, methods,</text>
<text text-anchor="middle" x="3068.5" y="-244.8" font-family="Times,serif" font-size="29.00">and applications&quot;</text>
</g>
<!-- 1&#45;&gt;6 -->
<g id="edge4" class="edge">
<title>1&#45;&gt;6</title>
<path fill="none" stroke="black" d="M251.33,-156.1C251.33,-173.41 251.33,-187 251.33,-187 251.33,-187 3001.2,-187 3001.2,-187 3001.2,-187 3001.2,-217.8 3001.2,-217.8"/>
<polygon fill="black" stroke="black" points="2997.7,-217.8 3001.2,-227.8 3004.7,-217.8 2997.7,-217.8"/>
</g>
<!-- 3&#45;&gt;6 -->
<g id="edge5" class="edge">
<title>3&#45;&gt;6</title>
<path fill="none" stroke="black" d="M2120.1,-299C2120.1,-299 2856.4,-299 2856.4,-299"/>
<polygon fill="black" stroke="black" points="2856.4,-302.5 2866.4,-299 2856.4,-295.5 2856.4,-302.5"/>
</g>
<!-- 4&#45;&gt;3 -->
<g id="edge6" class="edge">
<title>4&#45;&gt;3</title>
<path fill="none" stroke="black" d="M1256.2,-299C1256.2,-299 1702.7,-299 1702.7,-299"/>
<polygon fill="black" stroke="black" points="1702.7,-302.5 1712.7,-299 1702.7,-295.5 1702.7,-302.5"/>
</g>
<!-- 5 -->
<g id="node6" class="node">
<title>5</title>
<polygon fill="lightgrey" stroke="black" points="2727.5,-168 2257.5,-168 2257.5,0 2727.5,0 2727.5,-168"/>
<text text-anchor="middle" x="2492.5" y="-140.8" font-family="Times,serif" font-size="29.00">Guo (2017)</text>
<text text-anchor="middle" x="2492.5" y="-108.8" font-family="Times,serif" font-size="29.00">&quot;Silicon mode (de)multiplexers</text>
<text text-anchor="middle" x="2492.5" y="-76.8" font-family="Times,serif" font-size="29.00">with parameters</text>
<text text-anchor="middle" x="2492.5" y="-44.8" font-family="Times,serif" font-size="29.00">optimized using</text>
<text text-anchor="middle" x="2492.5" y="-12.8" font-family="Times,serif" font-size="29.00">shortcuts to adiabaticity&quot;</text>
</g>
<!-- 5&#45;&gt;6 -->
<g id="edge7" class="edge">
<title>5&#45;&gt;6</title>
<path fill="none" stroke="black" d="M2727.9,-83C2911.6,-83 3135.8,-83 3135.8,-83 3135.8,-83 3135.8,-217.74 3135.8,-217.74"/>
<polygon fill="black" stroke="black" points="3132.3,-217.74 3135.8,-227.74 3139.3,-217.74 3132.3,-217.74"/>
</g>
</g>
</svg>
