<?xml version="1.0" encoding="UTF-8"?>
<svg xmlns="http://www.w3.org/2000/svg" xmlns:xlink="http://www.w3.org/1999/xlink"
     width="2000" height="80" viewBox="0 -80 2000 80">
<defs>
</defs>
<rect x="0" y="-80" width="2000" height="80" fill="white" />
<rect x="27" y="-45.0" width="1946" height="5" fill="black" />
<rect x="27.0" y="-40.0" width="5" height="15" fill="black" />
<text x="0.0" y="-5.0" font-size="29">2009</text>
<rect x="221.1" y="-40.0" width="5" height="15" fill="black" />
<text x="194.1" y="-5.0" font-size="29">2010</text>
<rect x="415.2" y="-40.0" width="5" height="15" fill="black" />
<text x="388.2" y="-5.0" font-size="29">2011</text>
<rect x="609.3" y="-40.0" width="5" height="15" fill="black" />
<text x="582.3" y="-5.0" font-size="29">2012</text>
<rect x="803.4" y="-40.0" width="5" height="15" fill="black" />
<text x="776.4" y="-5.0" font-size="29">2013</text>
<rect x="997.5" y="-40.0" width="5" height="15" fill="black" />
<text x="970.5" y="-5.0" font-size="29">2014</text>
<rect x="1191.6" y="-40.0" width="5" height="15" fill="black" />
<text x="1164.6" y="-5.0" font-size="29">2015</text>
<rect x="1385.7" y="-40.0" width="5" height="15" fill="black" />
<text x="1358.7" y="-5.0" font-size="29">2016</text>
<rect x="1579.8" y="-40.0" width="5" height="15" fill="black" />
<text x="1552.8" y="-5.0" font-size="29">2017</text>
<rect x="1773.8999999999999" y="-40.0" width="5" height="15" fill="black" />
<text x="1746.8999999999999" y="-5.0" font-size="29">2018</text>
<rect x="1968.0" y="-40.0" width="5" height="15" fill="black" />
<text x="1941.0" y="-5.0" font-size="29">2019</text>
</svg>